<?xml version="1.0" encoding="utf-8"?>
<!-- Generator: Adobe Illustrator 21.0.2, SVG Export Plug-In . SVG Version: 6.00 Build 0)  -->
<svg version="1.1" id="Livello_1" xmlns="http://www.w3.org/2000/svg" xmlns:xlink="http://www.w3.org/1999/xlink" x="0px" y="0px"
	 viewBox="0 0 54 54" style="enable-background:new 0 0 54 54;" xml:space="preserve">
<style type="text/css">
	.st0{clip-path:url(#SVGID_2_);fill:#A29161;}
	.st1{clip-path:url(#SVGID_4_);fill:#0267AB;}
	.st2{clip-path:url(#SVGID_6_);fill:#010101;}
	.st3{clip-path:url(#SVGID_8_);fill:#A29161;}
	.st4{clip-path:url(#SVGID_10_);fill:#FFFFFF;}
	.st5{clip-path:url(#SVGID_12_);fill:#FFFFFF;}
	.st6{clip-path:url(#SVGID_14_);fill:#FFFFFF;}
	.st7{clip-path:url(#SVGID_16_);fill:#FFFFFF;}
	.st8{clip-path:url(#SVGID_18_);fill:#FFFFFF;}
	.st9{clip-path:url(#SVGID_20_);fill:#FFFFFF;}
	.st10{clip-path:url(#SVGID_22_);fill:#FFFFFF;}
	.st11{clip-path:url(#SVGID_24_);fill:#FFFFFF;}
</style>
<g>
	<g>
		<defs>
			<rect id="SVGID_1_" width="54" height="54"/>
		</defs>
		<clipPath id="SVGID_2_">
			<use xlink:href="#SVGID_1_"  style="overflow:visible;"/>
		</clipPath>
		<path class="st0" d="M27,0C12.1,0,0,12.1,0,27s12.1,27,27,27s27-12.1,27-27S41.9,0,27,0"/>
	</g>
	<g>
		<defs>
			<rect id="SVGID_3_" width="54" height="54"/>
		</defs>
		<clipPath id="SVGID_4_">
			<use xlink:href="#SVGID_3_"  style="overflow:visible;"/>
		</clipPath>
		<path class="st1" d="M27,1.7C13.1,1.7,1.7,13.1,1.7,27S13,52.3,27,52.3C40.9,52.3,52.3,41,52.3,27S40.9,1.7,27,1.7"/>
	</g>
	<g>
		<defs>
			<rect id="SVGID_5_" width="54" height="54"/>
		</defs>
		<clipPath id="SVGID_6_">
			<use xlink:href="#SVGID_5_"  style="overflow:visible;"/>
		</clipPath>
		<path class="st2" d="M27,4.5C14.5,4.5,4.5,14.5,4.5,27S14.5,49.5,27,49.5S49.5,39.5,49.5,27S39.5,4.5,27,4.5"/>
	</g>
	<g>
		<defs>
			<rect id="SVGID_7_" width="54" height="54"/>
		</defs>
		<clipPath id="SVGID_8_">
			<use xlink:href="#SVGID_7_"  style="overflow:visible;"/>
		</clipPath>
		<path class="st3" d="M27,46.8C16.1,46.8,7.2,37.9,7.2,27S16.1,7.2,27,7.2S46.8,16.1,46.8,27S37.9,46.8,27,46.8"/>
	</g>
	<g>
		<defs>
			<rect id="SVGID_9_" width="54" height="54"/>
		</defs>
		<clipPath id="SVGID_10_">
			<use xlink:href="#SVGID_9_"  style="overflow:visible;"/>
		</clipPath>
		<path class="st4" d="M27,42.3c-8.4,0-15.3-6.8-15.3-15.3S18.6,11.7,27,11.7c5.7,0,10.7,3.2,13.3,7.8l1.9-2.2
			C39.1,12.3,33.4,9,27,9C17,9,9,17,9,27S17,45,27,45c6.4,0,12.1-3.4,15.3-8.5l-1.9-2.2C37.7,39.1,32.7,42.3,27,42.3"/>
	</g>
	<g>
		<defs>
			<rect id="SVGID_11_" width="54" height="54"/>
		</defs>
		<clipPath id="SVGID_12_">
			<use xlink:href="#SVGID_11_"  style="overflow:visible;"/>
		</clipPath>
		<path class="st5" d="M28.4,12.6c-0.5,0-0.9-0.1-1.4-0.1c-0.5,0-0.9,0-1.4,0.1V18h2.8L28.4,12.6L28.4,12.6z"/>
	</g>
	<g>
		<defs>
			<rect id="SVGID_13_" width="54" height="54"/>
		</defs>
		<clipPath id="SVGID_14_">
			<use xlink:href="#SVGID_13_"  style="overflow:visible;"/>
		</clipPath>
		<path class="st6" d="M25.6,41.4c0.5,0,0.9,0.1,1.4,0.1s0.9,0,1.4-0.1V22.2h-2.8L25.6,41.4L25.6,41.4z"/>
	</g>
	<g>
		<defs>
			<rect id="SVGID_15_" width="54" height="54"/>
		</defs>
		<clipPath id="SVGID_16_">
			<use xlink:href="#SVGID_15_"  style="overflow:visible;"/>
		</clipPath>
		<path class="st7" d="M38.2,17.9L38.1,18l-8.9,9.9V32l6.1-6.8v13.6c1-0.7,2-1.6,2.8-2.5V22.1l1.7-1.9
			C39.3,19.4,38.8,18.6,38.2,17.9"/>
	</g>
	<g>
		<defs>
			<rect id="SVGID_17_" width="54" height="54"/>
		</defs>
		<clipPath id="SVGID_18_">
			<use xlink:href="#SVGID_17_"  style="overflow:visible;"/>
		</clipPath>
		<path class="st8" d="M29.2,12.7v2.7c1.5,0.3,2.8,0.8,4.1,1.6l1.8-2C33.3,13.8,31.3,13,29.2,12.7"/>
	</g>
	<g>
		<defs>
			<rect id="SVGID_19_" width="54" height="54"/>
		</defs>
		<clipPath id="SVGID_20_">
			<use xlink:href="#SVGID_19_"  style="overflow:visible;"/>
		</clipPath>
		<path class="st9" d="M23.5,18.7v-3c0.4-0.1,0.9-0.3,1.3-0.3v-2.7C22.7,13,20.7,13.8,19,15l1.8,2v5.3l2.8,3.1v-4h5.8l2.4-2.6H23.5z
			"/>
	</g>
	<g>
		<defs>
			<rect id="SVGID_21_" width="54" height="54"/>
		</defs>
		<clipPath id="SVGID_22_">
			<use xlink:href="#SVGID_21_"  style="overflow:visible;"/>
		</clipPath>
		<path class="st10" d="M20.7,40c0.9,0.4,1.8,0.8,2.8,1v-9.3l-2.8-3.1C20.7,28.7,20.7,40,20.7,40z"/>
	</g>
	<g>
		<defs>
			<rect id="SVGID_23_" width="54" height="54"/>
		</defs>
		<clipPath id="SVGID_24_">
			<use xlink:href="#SVGID_23_"  style="overflow:visible;"/>
		</clipPath>
		<path class="st11" d="M15.9,18l-0.1-0.1c-0.6,0.7-1.1,1.5-1.6,2.4l1.7,1.9v14.1c0.8,1,1.7,1.8,2.8,2.6V25.2l6.2,6.8v-4.1L15.9,18z
			"/>
	</g>
</g>
</svg>
