<?xml version="1.0" encoding="UTF-8"?>
<!DOCTYPE svg PUBLIC "-//W3C//DTD SVG 1.1//EN" "http://www.w3.org/Graphics/SVG/1.1/DTD/svg11.dtd">
<!-- Creator: CorelDRAW X8 -->
<svg xmlns="http://www.w3.org/2000/svg" xml:space="preserve" width="200px" height="94px" version="1.1" style="shape-rendering:geometricPrecision; text-rendering:geometricPrecision; image-rendering:optimizeQuality; fill-rule:evenodd; clip-rule:evenodd"
viewBox="0 0 200 94"
 xmlns:xlink="http://www.w3.org/1999/xlink"
 enable-background="new 0 0 200 93.665">
 <defs>
  <style type="text/css">
   <![CDATA[
    .fil0 {fill:#00AEEF}
   ]]>
  </style>
 </defs>
 <g id="Слой_x0020_1">
  <metadata id="CorelCorpID_0Corel-Layer"/>
  <g>
   <path class="fil0" d="M43 77c53,-22 105,-44 157,-66 -22,0 -43,0 -65,-1 -3,5 -7,9 -10,13 2,-4 3,-8 4,-13 -2,0 -5,0 -7,0 -2,6 -6,13 -9,18 -2,3 -2,0 -2,-1 2,-6 4,-11 5,-17 -2,0 -4,1 -7,1 -1,2 -1,5 -2,7l-10 14c2,-7 4,-14 6,-22l-8 0c-1,5 -2,9 -3,13 -2,1 -5,1 -7,2 2,-5 3,-10 5,-15 -3,0 -6,0 -9,0 -1,6 -3,11 -4,17 -5,5 -10,11 -15,17 -1,1 -2,1 -3,1 -2,0 -2,-6 -1,-9 4,-2 8,-5 12,-9 7,-6 8,-17 -1,-17 -8,1 -17,10 -20,24 -3,1 -5,2 -8,3 0,-2 -1,-5 -4,-8 10,-5 20,-18 14,-26 -4,-5 -19,-3 -28,8 0,3 -1,5 -2,8 1,0 1,0 2,0 9,-13 17,-11 17,-5 0,4 -6,12 -14,18 3,3 5,6 5,10 -17,9 -31,27 -31,40 0,6 2,12 8,12 14,-1 36,-30 34,-52 2,-1 4,-2 6,-3 -1,5 0,17 9,14 6,-2 13,-12 18,-19 -2,5 -3,9 -5,14 3,-1 6,-2 9,-2 2,-6 3,-11 5,-16 2,0 4,-1 6,-2 -1,5 -3,10 -4,15 3,-1 5,-1 8,-2 3,-5 7,-9 10,-14 -1,7 1,10 5,10 4,-1 7,-9 10,-14 -1,3 -2,7 -2,10 2,-1 4,-2 7,-2 3,-5 7,-10 11,-15l3 0c-1,4 -2,7 -3,11 3,-1 5,-2 8,-3 1,-2 1,-5 2,-8l25 1c-42,16 -83,33 -124,50 -1,3 -2,7 -3,10l0 0zm23 -61c1,0 1,3 1,4 -1,3 -4,8 -9,10 1,-5 5,-15 8,-14l0 0zm-47 65c-6,7 -8,3 -8,-1 0,-13 11,-25 20,-32 0,12 -6,27 -12,33z"/>
  </g>
 </g>
</svg>
